<?xml version="1.0" encoding="UTF-8" standalone="no"?>
<svg
   version="1.1"
   width="613"
   height="555"
   id="svg16"
   sodipodi:docname="defcon.svg"
   inkscape:version="1.3.2 (091e20e, 2023-11-25, custom)"
   xmlns:inkscape="http://www.inkscape.org/namespaces/inkscape"
   xmlns:sodipodi="http://sodipodi.sourceforge.net/DTD/sodipodi-0.dtd"
   xmlns="http://www.w3.org/2000/svg"
   xmlns:svg="http://www.w3.org/2000/svg">
  <defs
     id="defs16" />
  <sodipodi:namedview
     id="namedview16"
     pagecolor="#ffffff"
     bordercolor="#000000"
     borderopacity="0.25"
     inkscape:showpageshadow="2"
     inkscape:pageopacity="0.0"
     inkscape:pagecheckerboard="0"
     inkscape:deskcolor="#d1d1d1"
     inkscape:zoom="1.5405405"
     inkscape:cx="501.77193"
     inkscape:cy="265.16667"
     inkscape:window-width="1920"
     inkscape:window-height="1111"
     inkscape:window-x="-9"
     inkscape:window-y="-9"
     inkscape:window-maximized="1"
     inkscape:current-layer="svg16" />
  <path
     d="M0 0 C0.63824707 0.17160645 1.27649414 0.34321289 1.93408203 0.52001953 C31.19237477 8.48402575 58.88088121 25.6866277 75 52 C75.51820313 52.81984375 76.03640625 53.6396875 76.5703125 54.484375 C93.63419802 82.09528524 100.14779583 115.610537 93.43945312 147.6796875 C92.73540412 150.5806115 91.95327875 153.44459958 91.125 156.3125 C90.82907959 157.34052734 90.53315918 158.36855469 90.22827148 159.42773438 C86.88886011 170.34545916 81.71711515 180.15929324 76 190 C99.37787115 179.30980984 99.37787115 179.30980984 116 161 C116.33 160.01 116.66 159.02 117 158 C117.66 158 118.32 158 119 158 C119.01417969 157.37996094 119.02835937 156.75992188 119.04296875 156.12109375 C119.5787255 146.1733941 121.89373993 134.36420054 129 127 C135.52587069 122.77799101 142.28282466 120.68747254 150 122 C156.28658413 123.7509301 161.48537485 126.26514923 166 131 C168.57270042 135.58832004 170.14187248 140.30672178 170.125 145.5625 C170.12113281 146.88314453 170.12113281 146.88314453 170.1171875 148.23046875 C170.0003554 150.99160064 169.64681885 153.64180893 169.25 156.375 C168.83891955 160.11431236 168.83891955 160.11431236 170.4375 163.5 C173.18591315 165.10882721 175.75347487 165.72223573 178.84765625 166.390625 C185.10689038 168.16274936 189.48692105 171.96554853 193.08984375 177.25390625 C196.04513764 182.9235044 195.65314131 189.80967179 195 196 C193.77030041 199.36937688 192.09915523 202.1060779 190 205 C189.38125 205.928125 188.7625 206.85625 188.125 207.8125 C183.25755844 212.82310161 179.53267281 214.27732085 172.625 214.5625 C166.83666053 214.42117112 161.94785635 213.2671053 156.5 211.5 C144.83475066 207.72981243 134.1531819 207.40154006 123 213 C118.9233871 215.23388695 114.9461688 217.630495 110.96875 220.03515625 C105.34254569 223.42303988 99.61217707 226.61729981 93.875 229.8125 C91.71739969 231.01684068 89.55984783 232.22126817 87.40234375 233.42578125 C86.3335498 234.02213379 85.26475586 234.61848633 84.16357422 235.23291016 C69.05980229 243.66948225 54.05160551 252.25765875 39.125 261.00390625 C38.23683594 261.51969238 37.34867187 262.03547852 36.43359375 262.56689453 C34.93262852 263.45078958 33.44272849 264.35420027 31.97265625 265.28857422 C28.10765853 267.69996913 25.53584065 268.77888173 21 268 C17.25988504 266.36416443 13.79563284 264.25825261 10.27734375 262.19921875 C6.02238876 259.80152497 3.03533064 258.30858146 -2 259 C-4.42284238 260.1075902 -4.42284238 260.1075902 -6 262 C-6 263.32 -6 264.64 -6 266 C-5.41323486 266.3309668 -4.82646973 266.66193359 -4.22192383 267.00292969 C7.1800026 273.43609116 18.56962531 279.88913011 29.92700195 286.40063477 C37.94657927 290.98894267 46.0161315 295.48644855 54.09155273 299.97558594 C59.31819374 302.8926669 64.48626915 305.86503741 69.56860352 309.02685547 C80.59522458 315.87474006 90.98224424 318.74847502 104 317 C107.54617344 316.15831394 110.96285009 314.98758658 114.4050293 313.79907227 C121.66215746 311.32535852 127.46320816 310.79695121 134.6875 313.5 C140.84031152 316.58185073 144.52366162 321.47593761 147.9375 327.3125 C150.14839037 334.98559012 149.82484077 341.90358364 146.20703125 349.0625 C142.2387912 355.4322316 136.83419704 358.95000406 129.8125 361.0625 C127.85691396 361.65130402 125.91310043 362.28511981 124 363 C122.74458543 365.51082913 123.08290088 366.73325133 123.4375 369.5 C124.41038677 378.63724735 124.92928021 385.88118553 120 394 C115.8779512 399.0133026 110.46475207 402.77979271 104 404 C95.28580813 404.63111139 90.0815751 403.85710257 82.875 398.8125 C77.30474314 393.8530807 75.92333092 388.05175305 74.6875 380.875 C72.61589129 369.6659172 68.48256817 359.84470221 59 353 C55.52436635 350.7560809 51.96410039 348.68132276 48.375 346.625 C46.40699672 345.48142394 44.43954599 344.33689647 42.47265625 343.19140625 C41.52922363 342.64371582 40.58579102 342.09602539 39.61376953 341.53173828 C35.4040246 339.06471608 31.2709301 336.48282705 27.14453125 333.87890625 C23.46314992 331.67922374 19.70736626 329.64229003 15.93725586 327.59936523 C11.22215424 325.03194518 6.54809752 322.3929025 1.875 319.75 C0.87291504 319.1835376 -0.12916992 318.6170752 -1.16162109 318.03344727 C-7.69734851 314.32924207 -14.19192847 310.56280781 -20.65576172 306.73486328 C-30.56441798 300.87536092 -40.59000087 295.21754891 -50.59423828 289.5234375 C-61.66090048 283.22249491 -72.6904055 276.86262425 -83.68432617 270.43554688 C-97.93256746 262.10985699 -112.22123557 253.85199991 -126.5625 245.6875 C-131.38228228 242.94175606 -136.16387108 240.13722128 -140.9375 237.3125 C-148.78828229 232.67092265 -156.71525892 228.16946552 -164.66577148 223.70117188 C-168.90553703 221.31810547 -173.14067143 218.93228165 -177.33203125 216.46484375 C-177.96343018 216.09504395 -178.5948291 215.72524414 -179.24536133 215.34423828 C-180.85450008 214.39805484 -182.45875274 213.44357458 -184.0625 212.48828125 C-195.12926223 206.88131794 -206.23189393 208.24083437 -217.6875 211.5 C-233.60496803 216.02847629 -233.60496803 216.02847629 -241.25 212.5 C-249.63524702 204.87704817 -253.89138306 198.49652489 -254.5625 187 C-254.37607508 180.63723638 -252.38519179 176.56360431 -248 172 C-243.07659899 167.8167181 -237.30375323 165.86022284 -231.22265625 163.89453125 C-228.83285189 163.2180191 -228.83285189 163.2180191 -228 161 C-227.75212983 156.85496339 -227.75212983 156.85496339 -229 153 C-229.57741924 145.02355742 -229.41652565 137.62478848 -224.875 130.8125 C-220.69830986 126.2628911 -214.83827365 122.38382736 -208.6171875 121.76171875 C-201.78933808 121.57691941 -196.88059763 122.49168891 -191 126 C-190.360625 126.35449219 -189.72125 126.70898438 -189.0625 127.07421875 C-181.93900209 131.94091883 -179.98461305 141.79867453 -178.4609375 149.84765625 C-178.32945312 150.66105469 -178.19796875 151.47445312 -178.0625 152.3125 C-177.07466968 157.95724467 -174.25897619 162.36102672 -171 167 C-170.14148438 168.23363281 -170.14148438 168.23363281 -169.265625 169.4921875 C-166.39755056 172.66684921 -163.27472859 174.6290284 -159.625 176.8125 C-158.92544189 177.24046875 -158.22588379 177.6684375 -157.50512695 178.109375 C-151.66796403 181.65813839 -145.7489599 185.06157373 -139.79296875 188.40625 C-137.81930856 189.53247847 -135.89073706 190.73950863 -134 192 C-134.556875 191.17242187 -135.11375 190.34484375 -135.6875 189.4921875 C-152.93140326 162.87535778 -159.62768147 129.20438166 -153.1875 98.0625 C-152.51306352 95.02620178 -151.77926804 92.01094328 -151 89 C-150.62488281 87.49759766 -150.62488281 87.49759766 -150.2421875 85.96484375 C-149.58890181 83.59574449 -148.84031658 81.30886985 -148 79 C-147.53207031 77.68322266 -147.53207031 77.68322266 -147.0546875 76.33984375 C-141.79358237 62.6720077 -133.90732901 49.77225456 -124 39 C-123.52723633 38.4848584 -123.05447266 37.9697168 -122.56738281 37.43896484 C-114.81865867 29.0936137 -106.55547356 22.18179488 -97 16 C-96.02546875 15.36449219 -95.0509375 14.72898437 -94.046875 14.07421875 C-66.53609099 -2.87573151 -31.33973704 -8.7779466 0 0 Z "
     fill="#FCFCFC"
     transform="translate(336,77)"
     id="path2" />
  <path
     d="M0 0 C2.9984292 1.21751504 5.72433766 2.78116352 8.5 4.4375 C9.27520996 4.88834961 10.05041992 5.33919922 10.84912109 5.80371094 C12.44810152 6.73615045 14.0436478 7.67450335 15.63574219 8.61865234 C17.90421845 9.94403842 20.19676222 11.20771845 22.5078125 12.45703125 C23.88063978 13.22057895 25.25305676 13.98486499 26.625 14.75 C27.27017578 15.0895874 27.91535156 15.4291748 28.58007812 15.77905273 C30.3515625 16.796875 30.3515625 16.796875 33 19 C33.7109375 22.015625 33.7109375 22.015625 33 25 C29.89647414 28.12609696 26.18188847 30.18937401 22.375 32.375 C20.77785156 33.29345703 20.77785156 33.29345703 19.1484375 34.23046875 C16.44765373 35.74840305 13.73190841 37.22674771 11 38.6875 C2.9872282 43.0181021 -4.75962443 47.81265197 -12.55224609 52.5234375 C-15.42583998 54.25688013 -18.30740781 55.97663756 -21.19042969 57.69433594 C-23.01712253 58.78539661 -24.83938459 59.88346668 -26.66015625 60.984375 C-28.80566342 62.2792074 -30.95876693 63.56158063 -33.12109375 64.828125 C-43.86067418 71.2981029 -49.86238523 78.67766581 -52.98828125 90.84765625 C-53.49875693 92.95744137 -54.00153109 95.06894915 -54.50292969 97.1809082 C-56.72907145 106.3404184 -60.16084744 113.24768276 -68.4375 118.3125 C-75.10391076 121.3747643 -83.054596 121.40151751 -89.9140625 118.96484375 C-96.7951968 115.23323164 -100.55971923 109.88056154 -104 103 C-104.36095597 96.29046543 -103.99538901 89.62708896 -103.21875 82.9609375 C-102.96304463 80.99757171 -102.96304463 80.99757171 -103 79 C-103.94875 78.773125 -104.8975 78.54625 -105.875 78.3125 C-114.80258374 75.69205538 -121.68582992 71.77759003 -127 64 C-130.04274302 58.04680714 -130.13956222 50.64659911 -128.16015625 44.3125 C-124.95556136 37.23433755 -120.22372004 32.55646213 -113.625 28.5625 C-106.09580517 26.94910111 -100.06373889 28.15461104 -92.875 30.5 C-81.54455078 34.15050148 -70.16248296 34.7818879 -58.91796875 30.140625 C-54.54812605 27.89158632 -50.33786523 25.4424003 -46.140625 22.88671875 C-41.28799845 19.97152145 -36.38048014 17.15172181 -31.47045898 14.33447266 C-27.35589149 11.96796095 -23.27223804 9.56824731 -19.23828125 7.06640625 C-18.10434937 6.3717627 -18.10434937 6.3717627 -16.94750977 5.66308594 C-15.52217026 4.78707459 -14.10411828 3.89904975 -12.69506836 2.99707031 C-8.31790517 0.32640668 -5.2534277 -0.80999987 0 0 Z "
     fill="#FCFCFC"
     transform="translate(257,361)"
     id="path3" />
  <path
     d="M0 0 C1.2375 -0.01675781 2.475 -0.03351563 3.75 -0.05078125 C7 0.3125 7 0.3125 9 1.51953125 C10.43458781 4.09170237 9.74653471 5.51196372 9 8.3125 C7.3211576 26.77976644 15.6199118 41.49192668 27 55.3125 C27.62003906 56.13234375 28.24007812 56.9521875 28.87890625 57.796875 C39.67681997 70.60324045 58.55217928 79.19093644 75 81.3125 C97.63426243 83.17994887 118.63805587 76.96332912 136.75 63.25 C149.90949172 51.81377505 161.4619636 32.8379618 163.20703125 15.22265625 C163.26587073 12.6069737 163.18063055 10.67376109 162 8.3125 C161.8125 5.3125 161.8125 5.3125 162 2.3125 C164.49210439 -0.17960439 166.00360788 0.05234339 169.41015625 0.0390625 C170.44462891 0.05066406 170.44462891 0.05066406 171.5 0.0625 C172.18964844 0.05476562 172.87929688 0.04703125 173.58984375 0.0390625 C178.74666707 0.05916707 178.74666707 0.05916707 181 2.3125 C180.75142252 5.60615164 180.35970944 8.46919779 179.05859375 11.51953125 C177.95172361 14.43987129 177.34472091 17.32847737 176.75854492 20.39038086 C171.95925513 45.10659196 157.52204284 65.9290219 137.04296875 80.40234375 C130.88290847 84.43931407 124.64851139 87.49062704 117.8125 90.1875 C117.08861084 90.47383301 116.36472168 90.76016602 115.61889648 91.05517578 C105.49784618 94.85671314 95.89401137 95.65398012 85.125 95.625 C83.93519531 95.64111328 82.74539063 95.65722656 81.51953125 95.67382812 C57.92231767 95.68672278 36.1858322 84.69746818 19.625 68.375 C5.47448317 53.95770956 -3.75394151 35.97987544 -6.53125 15.87109375 C-7.11648031 12.67671162 -8.47304485 10.15818915 -10 7.3125 C-10.375 4.5625 -10.375 4.5625 -10 2.3125 C-6.33236683 -0.13258878 -4.36568225 0.01364276 0 0 Z "
     fill="#080808"
     transform="translate(221,201.6875)"
     id="path4"
     style="fill:#000000;fill-opacity:1" />
  <path
     d="M0 0 C1.18621091 0.71868963 2.35574786 1.46622825 3.5 2.25 C4.386875 2.806875 5.27375 3.36375 6.1875 3.9375 C11.37238649 9.12238649 14.58629652 15.92793947 14.9375 23.25 C14.86918369 30.60864239 11.81306741 36.37106432 7.08203125 41.91015625 C2.00556295 46.56003058 -4.59444471 49.42576532 -11.4375 49.8125 C-19.16525001 49.44051203 -25.27923781 45.95841303 -30.4375 40.3125 C-35.86113147 33.82279847 -37.16999897 28.13222852 -36.9765625 19.796875 C-35.92313109 11.95658222 -31.31441499 6.38764401 -25.40625 1.40625 C-18.15742508 -2.99057823 -7.67048099 -3.70399652 0 0 Z "
     fill="#050505"
     transform="translate(271.5,138.75)"
     id="path5"
     style="fill:#000000;fill-opacity:1" />
  <path
     d="M0 0 C2.26240686 1.47663803 4.25884336 3.02592778 6.265625 4.83203125 C7.7196875 6.13140625 7.7196875 6.13140625 9.203125 7.45703125 C14.52458649 13.58477478 14.73845076 20.84837964 14.6796875 28.72265625 C13.83859413 35.03879136 10.30956468 39.73284995 5.953125 44.20703125 C-1.47573684 48.6989012 -7.90500773 51.27590752 -16.734375 49.83203125 C-23.63658321 47.41235567 -29.23877969 42.51472753 -33.734375 36.83203125 C-36.8256098 30.26315729 -37.13610502 21.16109513 -34.89453125 14.23828125 C-31.64996531 7.85839401 -26.58052822 2.40980405 -19.90625 -0.328125 C-13.48697644 -2.0278095 -6.21087412 -2.65293052 0 0 Z "
     fill="#040404"
     transform="translate(362.734375,138.16796875)"
     id="path6"
     style="fill:#000000;fill-opacity:1" />
  <path
     d="M0 0 C3 2.5625 3 2.5625 5 6 C5.14971147 10.34163268 4.72194213 12.19555019 1.8125 15.4375 C-1.56275179 17.31263988 -3.2007634 17.71235686 -7 17 C-9.87459336 15.00028288 -11.62907801 13.51060972 -12.484375 10.02734375 C-12.73357225 6.32399572 -12.29743405 4.36052612 -9.9375 1.5 C-6.20022959 -0.4083934 -4.14201331 -0.73964523 0 0 Z "
     fill="#212121"
     transform="translate(479,441)"
     id="path7" />
  <path
     d="M0 0 C3 2.5625 3 2.5625 5 6 C5.14971147 10.34163268 4.72194213 12.19555019 1.8125 15.4375 C-1.56275179 17.31263988 -3.2007634 17.71235686 -7 17 C-9.87459336 15.00028288 -11.62907801 13.51060972 -12.484375 10.02734375 C-12.73357225 6.32399572 -12.29743405 4.36052612 -9.9375 1.5 C-6.20022959 -0.4083934 -4.14201331 -0.73964523 0 0 Z M-8.875 3.0625 C-10.64273274 6.1069286 -10.36823916 8.5631012 -10 12 C-9.10242444 14.14780077 -9.10242444 14.14780077 -7 15 C-1.95434998 14.80862516 -1.95434998 14.80862516 2 12 C2.4640446 7.33771115 2.4640446 7.33771115 0.875 3.0625 C-2.41527775 1.19800927 -5.58472225 1.19800927 -8.875 3.0625 Z "
     fill="#D2D2D2"
     transform="translate(479,441)"
     id="path8" />
  <path
     d="M0 0 C1.98 0 3.96 0 6 0 C7.10844919 3.32534757 6.84454356 5.62182575 6 9 C4.35 7.68 2.7 6.36 1 5 C0.67 6.32 0.34 7.64 0 9 C0 6.03 0 3.06 0 0 Z "
     fill="#C2C2C2"
     transform="translate(472,445)"
     id="path9" />
  <path
     d="M0 0 C0.268125 0.639375 0.53625 1.27875 0.8125 1.9375 C1.88667752 4.33131686 1.88667752 4.33131686 5 5 C5.33 5.66 5.66 6.32 6 7 C6.66 6.67 7.32 6.34 8 6 C8 6.99 8 7.98 8 9 C5.69 9.33 3.38 9.66 1 10 C-1.56687367 6.1496895 -0.83288724 4.41430237 0 0 Z "
     fill="#444444"
     transform="translate(471,446)"
     id="path10" />
  <path
     d="M0 0 C2.97850904 0.31912597 4.06711428 1.06167258 6.3125 3.125 C8.49845277 6.84921583 7.9679496 8.88621421 7 13 C6.34 12.67 5.68 12.34 5 12 C4.87625 10.9275 4.7525 9.855 4.625 8.75 C3.94052354 4.64314124 2.8058022 2.9868217 0 0 Z "
     fill="#C7C7C7"
     transform="translate(476,441)"
     id="path11" />
  <path
     d="M0 0 C0 0.99 0 1.98 0 3 C-2.40427362 5.14667287 -4.99090998 6.83519096 -8 8 C-8.99 7.67 -9.98 7.34 -11 7 C-7.37 4.69 -3.74 2.38 0 0 Z "
     fill="#DADADA"
     transform="translate(241,92)"
     id="path12" />
  <path
     d="M0 0 C1.36125 0.37125 1.36125 0.37125 2.75 0.75 C0.06158141 3.00245881 -1.89641875 4.63213958 -5.25 5.75 C-5.91 5.09 -6.57 4.43 -7.25 3.75 C-4.05 -0.31153846 -4.05 -0.31153846 0 0 Z "
     fill="#E9E9E9"
     transform="translate(455.25,289.25)"
     id="path13" />
  <path
     d="M0 0 C0.66 0.33 1.32 0.66 2 1 C1.67 1.66 1.34 2.32 1 3 C0.01 3.33 -0.98 3.66 -2 4 C-2.33 4.66 -2.66 5.32 -3 6 C-4.32 5.34 -5.64 4.68 -7 4 C-1.7265625 0.77734375 -1.7265625 0.77734375 0 0 Z "
     fill="#202020"
     transform="translate(254,407)"
     id="path14" />
  <path
     d="M0 0 C0.66 0.33 1.32 0.66 2 1 C-0.31 3.31 -2.62 5.62 -5 8 C-5 5 -5 5 -2.5 2.3125 C-1.675 1.549375 -0.85 0.78625 0 0 Z "
     fill="#D3D3D3"
     transform="translate(467,203)"
     id="path15" />
  <path
     d="M0 0 C0.598125 0.20625 1.19625 0.4125 1.8125 0.625 C1.1525 0.625 0.4925 0.625 -0.1875 0.625 C-0.5175 1.285 -0.8475 1.945 -1.1875 2.625 C-2.1775 3.12 -2.1775 3.12 -3.1875 3.625 C-3.8475 4.615 -4.5075 5.605 -5.1875 6.625 C-5.375 4.25 -5.375 4.25 -5.1875 1.625 C-2.1875 -0.375 -2.1875 -0.375 0 0 Z "
     fill="#303030"
     transform="translate(216.1875,202.375)"
     id="path16" />
</svg>
